<?xml version="1.0" encoding="utf-8" standalone="no"?>
<!DOCTYPE svg PUBLIC "-//W3C//DTD SVG 1.1//EN"
  "http://www.w3.org/Graphics/SVG/1.1/DTD/svg11.dtd">
<!-- Created with matplotlib (https://matplotlib.org/) -->
<svg height="251.66pt" version="1.1" viewBox="0 0 258.000781 251.66" width="258.000781pt" xmlns="http://www.w3.org/2000/svg" xmlns:xlink="http://www.w3.org/1999/xlink">
 <defs>
  <style type="text/css">
*{stroke-linecap:butt;stroke-linejoin:round;white-space:pre;}
  </style>
 </defs>
 <g id="figure_1">
  <g id="patch_1">
   <path d="M 0 251.66 
L 258.000781 251.66 
L 258.000781 0 
L 0 0 
z
" style="fill:#ffffff;"/>
  </g>
  <g id="axes_1">
   <g id="patch_2">
    <path d="M 61.878125 197.46 
L 229.278125 197.46 
L 229.278125 7.2 
L 61.878125 7.2 
z
" style="fill:#ffffff;"/>
   </g>
   <g id="patch_3">
    <path clip-path="url(#p4166f3474f)" d="M 61.878125 188.811818 
L 221.306696 188.811818 
L 221.306696 177.08547 
L 61.878125 177.08547 
z
" style="fill:#ffff00;"/>
   </g>
   <g id="patch_4">
    <path clip-path="url(#p4166f3474f)" d="M 61.878125 174.153883 
L 217.78989 174.153883 
L 217.78989 162.427535 
L 61.878125 162.427535 
z
" style="fill:url(#h5bdcdc4e38);"/>
   </g>
   <g id="patch_5">
    <path clip-path="url(#p4166f3474f)" d="M 61.878125 159.495948 
L 185.747873 159.495948 
L 185.747873 147.769599 
L 61.878125 147.769599 
z
" style="fill:#0000ff;"/>
   </g>
   <g id="patch_6">
    <path clip-path="url(#p4166f3474f)" d="M 61.878125 144.838012 
L 185.747873 144.838012 
L 185.747873 133.111664 
L 61.878125 133.111664 
z
" style="fill:url(#h0860ad3560);"/>
   </g>
   <g id="patch_7">
    <path clip-path="url(#p4166f3474f)" d="M 61.878125 130.180077 
L 158.785688 130.180077 
L 158.785688 118.453729 
L 61.878125 118.453729 
z
" style="fill:#ffff00;"/>
   </g>
   <g id="patch_8">
    <path clip-path="url(#p4166f3474f)" d="M 61.878125 115.522142 
L 152.924343 115.522142 
L 152.924343 103.795794 
L 61.878125 103.795794 
z
" style="fill:url(#h0860ad3560);"/>
   </g>
   <g id="patch_9">
    <path clip-path="url(#p4166f3474f)" d="M 61.878125 100.864206 
L 147.844512 100.864206 
L 147.844512 89.137858 
L 61.878125 89.137858 
z
" style="fill:url(#h5bdcdc4e38);"/>
   </g>
   <g id="patch_10">
    <path clip-path="url(#p4166f3474f)" d="M 61.878125 86.206271 
L 139.247873 86.206271 
L 139.247873 74.479923 
L 61.878125 74.479923 
z
" style="fill:url(#h17acf799c5);"/>
   </g>
   <g id="patch_11">
    <path clip-path="url(#p4166f3474f)" d="M 61.878125 71.548336 
L 131.041991 71.548336 
L 131.041991 59.821988 
L 61.878125 59.821988 
z
" style="fill:url(#h55b910cc8f);"/>
   </g>
   <g id="patch_12">
    <path clip-path="url(#p4166f3474f)" d="M 61.878125 56.890401 
L 83.760478 56.890401 
L 83.760478 45.164052 
L 61.878125 45.164052 
z
" style="fill:url(#h55b910cc8f);"/>
   </g>
   <g id="patch_13">
    <path clip-path="url(#p4166f3474f)" d="M 61.878125 42.232465 
L 83.760478 42.232465 
L 83.760478 30.506117 
L 61.878125 30.506117 
z
" style="fill:url(#h17acf799c5);"/>
   </g>
   <g id="patch_14">
    <path clip-path="url(#p4166f3474f)" d="M 61.878125 27.57453 
L 75.945352 27.57453 
L 75.945352 15.848182 
L 61.878125 15.848182 
z
" style="fill:#0000ff;"/>
   </g>
   <g id="matplotlib.axis_1">
    <g id="xtick_1">
     <g id="line2d_1">
      <defs>
       <path d="M 0 0 
L 0 3.5 
" id="m984dafd63d" style="stroke:#000000;stroke-width:0.8;"/>
      </defs>
      <g>
       <use style="stroke:#000000;stroke-width:0.8;" x="61.878125" xlink:href="#m984dafd63d" y="197.46"/>
      </g>
     </g>
     <g id="text_1">
      <!-- 0.00 -->
      <defs>
       <path d="M 47.59375 33 
Q 47.59375 26.296875 46.296875 20.34375 
Q 45 14.40625 42.453125 9.40625 
Q 39.90625 4.40625 35.40625 1.5 
Q 30.90625 -1.40625 25 -1.40625 
Q 18.90625 -1.40625 14.296875 1.6875 
Q 9.703125 4.796875 7.203125 10 
Q 4.703125 15.203125 3.546875 21.09375 
Q 2.40625 27 2.40625 33.59375 
Q 2.40625 42.90625 4.703125 50.34375 
Q 7 57.796875 12.34375 62.6875 
Q 17.703125 67.59375 25.40625 67.59375 
Q 35.203125 67.59375 41.390625 58 
Q 47.59375 48.40625 47.59375 33 
z
M 38 32.5 
Q 38 48.296875 34.640625 56.640625 
Q 31.296875 65 24.796875 65 
Q 18.59375 65 15.296875 56.59375 
Q 12 48.203125 12 32.90625 
Q 12 17.5 15.296875 9.34375 
Q 18.59375 1.203125 25 1.203125 
Q 31.296875 1.203125 34.640625 9.34375 
Q 38 17.5 38 32.5 
z
" id="STIXGeneral-Regular-48"/>
       <path d="M 18.09375 4.296875 
Q 18.09375 2.09375 16.4375 0.5 
Q 14.796875 -1.09375 12.5 -1.09375 
Q 10.203125 -1.09375 8.59375 0.5 
Q 7 2.09375 7 4.390625 
Q 7 6.703125 8.640625 8.34375 
Q 10.296875 10 12.59375 10 
Q 14.796875 10 16.4375 8.296875 
Q 18.09375 6.59375 18.09375 4.296875 
z
" id="STIXGeneral-Regular-46"/>
      </defs>
      <g transform="translate(44.378125 218.119375)scale(0.2 -0.2)">
       <use xlink:href="#STIXGeneral-Regular-48"/>
       <use x="49.999985" xlink:href="#STIXGeneral-Regular-46"/>
       <use x="74.999969" xlink:href="#STIXGeneral-Regular-48"/>
       <use x="124.999954" xlink:href="#STIXGeneral-Regular-48"/>
      </g>
     </g>
    </g>
    <g id="xtick_2">
     <g id="line2d_2">
      <g>
       <use style="stroke:#000000;stroke-width:0.8;" x="159.567201" xlink:href="#m984dafd63d" y="197.46"/>
      </g>
     </g>
     <g id="text_2">
      <!-- 0.25 -->
      <defs>
       <path d="M 47.40625 13.703125 
L 42 0 
L 2.90625 0 
L 2.90625 1.203125 
L 20.703125 20.09375 
Q 27.703125 27.40625 30.703125 33.5 
Q 33.703125 39.59375 33.703125 46.09375 
Q 33.703125 52.796875 30 56.5 
Q 26.296875 60.203125 19.796875 60.203125 
Q 14.40625 60.203125 11.25 57.390625 
Q 8.09375 54.59375 5.09375 47.203125 
L 3 47.703125 
Q 4.703125 57 9.84375 62.296875 
Q 15 67.59375 23.796875 67.59375 
Q 32.09375 67.59375 37.1875 62.59375 
Q 42.296875 57.59375 42.296875 50 
Q 42.296875 38.703125 29.5 25.203125 
L 13 7.59375 
L 36.40625 7.59375 
Q 39.703125 7.59375 41.640625 8.890625 
Q 43.59375 10.203125 46 14.296875 
z
" id="STIXGeneral-Regular-50"/>
       <path d="M 43.796875 68.09375 
L 40.203125 59.59375 
Q 39.59375 58.296875 37.5 58.296875 
L 18.09375 58.296875 
L 14.09375 49.796875 
Q 25.09375 47.703125 30 45.25 
Q 34.90625 42.796875 39.09375 37 
Q 42.59375 32.203125 42.59375 24.296875 
Q 42.59375 17.09375 40.25 12.1875 
Q 37.90625 7.296875 32.796875 3.5 
Q 26 -1.40625 15.796875 -1.40625 
Q 10.09375 -1.40625 6.59375 0.296875 
Q 3.09375 2 3.09375 4.796875 
Q 3.09375 8.59375 7.59375 8.59375 
Q 11.203125 8.59375 15 5.5 
Q 18.90625 2.296875 22.09375 2.296875 
Q 27.296875 2.296875 31.4375 7.5 
Q 35.59375 12.703125 35.59375 19.203125 
Q 35.59375 28.796875 28.90625 34.203125 
Q 20.203125 41.203125 7.59375 41.203125 
Q 6.40625 41.203125 6.40625 42 
L 6.5 42.5 
L 17.40625 66.203125 
L 38.09375 66.203125 
Q 39.796875 66.203125 40.75 66.703125 
Q 41.703125 67.203125 42.90625 68.796875 
z
" id="STIXGeneral-Regular-53"/>
      </defs>
      <g transform="translate(142.067201 218.119375)scale(0.2 -0.2)">
       <use xlink:href="#STIXGeneral-Regular-48"/>
       <use x="49.999985" xlink:href="#STIXGeneral-Regular-46"/>
       <use x="74.999969" xlink:href="#STIXGeneral-Regular-50"/>
       <use x="124.999954" xlink:href="#STIXGeneral-Regular-53"/>
      </g>
     </g>
    </g>
    <g id="text_3">
     <!-- Rank loss with $p_{train}$ -->
     <defs>
      <path d="M 66 0 
L 49.796875 0 
L 26 30.796875 
L 20.40625 30.59375 
L 20.40625 11.203125 
Q 20.40625 5.5 21.953125 3.890625 
Q 23.5 2.296875 29.296875 1.90625 
L 29.296875 0 
L 1.703125 0 
L 1.703125 1.90625 
Q 7.40625 2.40625 8.796875 4.09375 
Q 10.203125 5.796875 10.203125 12.40625 
L 10.203125 55.09375 
Q 10.203125 60.703125 8.796875 62.296875 
Q 7.40625 63.90625 1.703125 64.296875 
L 1.703125 66.203125 
L 28.90625 66.203125 
Q 42.59375 66.203125 49.796875 60.296875 
Q 54.703125 56.296875 54.703125 48.296875 
Q 54.703125 34.703125 36.59375 31.90625 
L 56.59375 6.59375 
Q 58.703125 4 60.59375 3.09375 
Q 62.5 2.203125 66 1.90625 
z
M 20.40625 58.296875 
L 20.40625 34.296875 
Q 27.59375 34.40625 31.09375 35.09375 
Q 34.59375 35.796875 38.09375 37.703125 
Q 43.796875 40.90625 43.796875 49.09375 
Q 43.796875 62.5 25.5 62.5 
Q 22.796875 62.5 21.59375 61.640625 
Q 20.40625 60.796875 20.40625 58.296875 
z
" id="STIXGeneral-Regular-82"/>
      <path d="M 44.203125 6.59375 
L 44.203125 3.796875 
Q 40.40625 -1 35.203125 -1 
Q 29.5 -1 28.796875 6.296875 
L 28.703125 6.296875 
Q 22.296875 -1 14.203125 -1 
Q 9.5 -1 6.59375 1.75 
Q 3.703125 4.5 3.703125 9.40625 
Q 3.703125 16.40625 10.703125 21.09375 
Q 15.5 24.296875 28.703125 29.203125 
L 28.703125 34.59375 
Q 28.703125 39.09375 26.546875 41.34375 
Q 24.40625 43.59375 20.90625 43.59375 
Q 17.90625 43.59375 15.90625 42.140625 
Q 13.90625 40.703125 13.90625 38.703125 
Q 13.90625 37.796875 14.203125 36.6875 
Q 14.5 35.59375 14.5 34.5 
Q 14.5 33 13.140625 31.703125 
Q 11.796875 30.40625 9.90625 30.40625 
Q 8.203125 30.40625 6.890625 31.703125 
Q 5.59375 33 5.59375 35 
Q 5.59375 39.796875 10.703125 43 
Q 15.40625 46 22.203125 46 
Q 30.296875 46 34 41.5 
Q 35.796875 39.40625 36.296875 37.25 
Q 36.796875 35.09375 36.796875 30.40625 
L 36.796875 11.296875 
Q 36.796875 4.703125 39.90625 4.703125 
Q 41.90625 4.703125 44.203125 6.59375 
z
M 28.703125 12.703125 
L 28.703125 26.796875 
Q 19.5 23.59375 15.90625 20.203125 
Q 12.5 17.09375 12.5 12.5 
Q 12.5 8.703125 14.390625 6.75 
Q 16.296875 4.796875 19.40625 4.796875 
Q 22.703125 4.796875 25.203125 6.40625 
Q 27.296875 7.90625 28 9.203125 
Q 28.703125 10.5 28.703125 12.703125 
z
" id="STIXGeneral-Regular-97"/>
      <path d="M 48.5 0 
L 27.703125 0 
L 27.796875 1.5 
Q 31.5 1.796875 32.75 3.640625 
Q 34 5.5 34 10.5 
L 34 30.40625 
Q 34 40.5 26.703125 40.5 
Q 24.203125 40.5 22 39.296875 
Q 19.796875 38.09375 16.40625 34.796875 
L 16.40625 7.203125 
Q 16.40625 4.203125 17.75 3 
Q 19.09375 1.796875 22.90625 1.5 
L 22.90625 0 
L 1.796875 0 
L 1.796875 1.5 
Q 5.59375 1.796875 6.796875 3.34375 
Q 8 4.90625 8 9.40625 
L 8 33.703125 
Q 8 37.40625 7.296875 38.796875 
Q 6.59375 40.203125 4.5 40.203125 
Q 2.5 40.203125 1.59375 39.796875 
L 1.59375 41.5 
Q 8.59375 43.5 15.296875 46 
L 16.09375 45.703125 
L 16.09375 37.90625 
L 16.203125 37.90625 
Q 23.296875 46 30.59375 46 
Q 36.296875 46 39.34375 42 
Q 42.40625 38 42.40625 30.59375 
L 42.40625 8.5 
Q 42.40625 4.5 43.59375 3.203125 
Q 44.796875 1.90625 48.5 1.5 
z
" id="STIXGeneral-Regular-110"/>
      <path d="M 50.5 0 
L 28.703125 0 
L 28.703125 1.5 
L 30.59375 1.5 
Q 32.703125 1.5 32.703125 3 
Q 32.703125 3.90625 31.59375 5.296875 
L 16.59375 25.09375 
L 16.59375 6.703125 
Q 16.59375 4.09375 17.84375 2.890625 
Q 19.09375 1.703125 22.09375 1.59375 
L 24.09375 1.5 
L 24.09375 0 
L 0.703125 0 
L 0.703125 1.5 
Q 6.09375 2.40625 7.140625 3.34375 
Q 8.203125 4.296875 8.203125 8.203125 
L 8.203125 56.40625 
Q 8.203125 60 7.296875 61.25 
Q 6.40625 62.5 3.90625 62.5 
Q 3.296875 62.5 0.703125 62.296875 
L 0.703125 63.90625 
L 3.703125 64.703125 
Q 9.703125 66.296875 16.203125 68.296875 
L 16.59375 68.09375 
L 16.59375 26.09375 
L 30.296875 38.296875 
Q 32.59375 40.40625 32.59375 41.796875 
Q 32.59375 42.796875 31.546875 43.140625 
Q 30.5 43.5 27.59375 43.59375 
L 27.59375 45 
L 48 45 
L 48 43.5 
Q 43 43.5 39.140625 41.34375 
Q 35.296875 39.203125 26.40625 30.90625 
L 23.5 28.203125 
L 38.796875 8.796875 
Q 44.203125 1.90625 50.5 1.5 
z
" id="STIXGeneral-Regular-107"/>
      <path id="STIXGeneral-Regular-32"/>
      <path d="M 25.703125 0 
L 2.09375 0 
L 2.09375 1.5 
Q 6.796875 1.90625 8.296875 3.453125 
Q 9.796875 5 9.796875 9.203125 
L 9.796875 56.09375 
Q 9.796875 59.703125 8.890625 61.09375 
Q 8 62.5 5.59375 62.5 
Q 3.5 62.5 1.90625 62.296875 
L 1.90625 63.90625 
Q 11.40625 66.203125 17.703125 68.296875 
L 18.203125 67.90625 
L 18.203125 8.703125 
Q 18.203125 4.5 19.59375 3.140625 
Q 21 1.796875 25.703125 1.5 
z
" id="STIXGeneral-Regular-108"/>
      <path d="M 47 23.09375 
Q 47 12.59375 40.75 5.796875 
Q 34.5 -1 24.5 -1 
Q 15.296875 -1 9.09375 5.75 
Q 2.90625 12.5 2.90625 22.796875 
Q 2.90625 33.203125 9.09375 39.59375 
Q 15.296875 46 25.40625 46 
Q 34.703125 46 40.84375 39.640625 
Q 47 33.296875 47 23.09375 
z
M 38 20.40625 
Q 38 31.796875 33 38.203125 
Q 29 43.203125 23.5 43.203125 
Q 18.296875 43.203125 15.09375 38.953125 
Q 11.90625 34.703125 11.90625 27.296875 
Q 11.90625 14.5 17.203125 6.796875 
Q 20.59375 1.796875 26.203125 1.796875 
Q 31.703125 1.796875 34.84375 6.75 
Q 38 11.703125 38 20.40625 
z
" id="STIXGeneral-Regular-111"/>
      <path d="M 15.59375 30.09375 
L 26 23.796875 
Q 31 20.796875 32.890625 18.1875 
Q 34.796875 15.59375 34.796875 11.5 
Q 34.796875 6.5 30.640625 2.75 
Q 26.5 -1 20.796875 -1 
Q 16.09375 -1 13.5 -0.09375 
Q 10.796875 0.796875 8.90625 0.796875 
Q 7.203125 0.796875 6.5 -0.40625 
L 5.203125 -0.40625 
L 5.203125 15.296875 
L 6.796875 15.296875 
Q 8.40625 8 11.40625 4.59375 
Q 14.40625 1.203125 19.5 1.203125 
Q 23.203125 1.203125 25.5 3.296875 
Q 27.796875 5.40625 27.796875 8.59375 
Q 27.796875 13.203125 22.5 16.09375 
L 17.09375 19.09375 
Q 5.09375 25.796875 5.09375 33.59375 
Q 5.09375 39.40625 8.84375 42.65625 
Q 12.59375 45.90625 18.90625 45.90625 
Q 23.296875 45.90625 25.59375 44.796875 
Q 27.40625 44 28.40625 44 
Q 29.09375 44 30 45 
L 31.09375 45 
L 31.59375 31.40625 
L 30.09375 31.40625 
Q 28.40625 38.203125 25.84375 40.953125 
Q 23.296875 43.703125 18.796875 43.703125 
Q 15.40625 43.703125 13.34375 42 
Q 11.296875 40.296875 11.296875 36.90625 
Q 11.296875 35.203125 12.4375 33.25 
Q 13.59375 31.296875 15.59375 30.09375 
z
" id="STIXGeneral-Regular-115"/>
      <path d="M 69.40625 45 
L 69.40625 43.5 
Q 67.90625 43 67.203125 42.046875 
Q 66.5 41.09375 65.296875 38.09375 
L 51.5 3.5 
Q 49.5 -1.40625 48.703125 -1.40625 
Q 48.203125 -1.40625 47.84375 -0.75 
Q 47.5 -0.09375 46.296875 2.90625 
L 37.203125 26.5 
L 26 2.5 
Q 24.203125 -1.40625 23.5 -1.40625 
Q 22.59375 -1.40625 20.90625 3 
L 7.40625 37.203125 
Q 5.90625 41.09375 4.90625 42.1875 
Q 3.90625 43.296875 2.09375 43.5 
L 2.09375 45 
L 20.09375 45 
L 20.09375 43.5 
Q 17.5 43.203125 16.5 42.5 
Q 15.5 41.796875 15.5 40.203125 
Q 15.5 38.703125 16.09375 37.203125 
L 26 11.09375 
L 35.09375 31 
L 33.09375 36.59375 
Q 31.703125 40.59375 30.34375 41.890625 
Q 29 43.203125 26.203125 43.5 
L 26.203125 45 
L 46.5 45 
L 46.5 43.5 
Q 43 43 41.84375 42.296875 
Q 40.703125 41.59375 40.703125 40 
Q 40.703125 38.40625 42.40625 34 
L 50.796875 11.59375 
L 59.796875 33.796875 
Q 61.5 38 61.5 40.5 
Q 61.5 41.703125 60.546875 42.34375 
Q 59.59375 43 57.09375 43.5 
L 57.09375 45 
z
" id="STIXGeneral-Regular-119"/>
      <path d="M 18 63.203125 
Q 18 61 16.5 59.546875 
Q 15 58.09375 12.796875 58.09375 
Q 10.703125 58.09375 9.25 59.546875 
Q 7.796875 61 7.796875 63.203125 
Q 7.796875 65.296875 9.296875 66.796875 
Q 10.796875 68.296875 12.90625 68.296875 
Q 15.09375 68.296875 16.546875 66.796875 
Q 18 65.296875 18 63.203125 
z
M 25.296875 0 
L 1.59375 0 
L 1.59375 1.5 
Q 6.796875 1.796875 8.140625 3.296875 
Q 9.5 4.796875 9.5 10.40625 
L 9.5 33.09375 
Q 9.5 36.59375 8.796875 38 
Q 8.09375 39.40625 6.203125 39.40625 
Q 3.796875 39.40625 2 38.90625 
L 2 40.5 
L 17.5 46 
L 17.90625 45.59375 
L 17.90625 10.5 
Q 17.90625 4.90625 19.15625 3.40625 
Q 20.40625 1.90625 25.296875 1.5 
z
" id="STIXGeneral-Regular-105"/>
      <path d="M 26.59375 7.703125 
L 27.90625 6.59375 
Q 23.09375 -1 15.796875 -1 
Q 7 -1 7 11.703125 
L 7 41.796875 
L 1.703125 41.796875 
Q 1.296875 42.09375 1.296875 42.5 
Q 1.296875 43.296875 3 44.40625 
Q 6.796875 46.59375 12.703125 55.09375 
Q 12.90625 55.40625 13.65625 56.34375 
Q 14.40625 57.296875 14.703125 57.90625 
Q 15.40625 57.90625 15.40625 56.59375 
L 15.40625 45 
L 25.5 45 
L 25.5 41.796875 
L 15.40625 41.796875 
L 15.40625 13.203125 
Q 15.40625 8.40625 16.59375 6.296875 
Q 17.796875 4.203125 20.59375 4.203125 
Q 23.59375 4.203125 26.59375 7.703125 
z
" id="STIXGeneral-Regular-116"/>
      <path d="M 48.703125 0 
L 27.5 0 
L 27.5 1.5 
Q 31.90625 2 33.09375 3.5 
Q 34.296875 5 34.296875 10.203125 
L 34.296875 30 
Q 34.296875 40.59375 26.90625 40.59375 
Q 23.90625 40.59375 21.40625 39.1875 
Q 18.90625 37.796875 15.703125 34.296875 
L 15.703125 10.203125 
Q 15.703125 5 16.890625 3.5 
Q 18.09375 2 22.5 1.5 
L 22.5 0 
L 0.90625 0 
L 0.90625 1.5 
Q 5.203125 2.09375 6.25 3.5 
Q 7.296875 4.90625 7.296875 10.203125 
L 7.296875 57.296875 
Q 7.296875 60.5 6.34375 61.453125 
Q 5.40625 62.40625 2.203125 62.40625 
Q 1.296875 62.40625 1 62.296875 
L 1 63.90625 
L 3.703125 64.703125 
Q 11.40625 67 15.203125 68.296875 
L 15.703125 68 
L 15.703125 37.59375 
Q 19.203125 42.09375 22.59375 44.046875 
Q 26 46 30.40625 46 
Q 42.703125 46 42.703125 30.09375 
L 42.703125 10.203125 
Q 42.703125 5 43.640625 3.640625 
Q 44.59375 2.296875 48.703125 1.5 
z
" id="STIXGeneral-Regular-104"/>
      <path d="M 49.609375 33.6875 
Q 49.609375 40.875 46.484375 44.671875 
Q 43.359375 48.484375 37.5 48.484375 
Q 33.5 48.484375 29.859375 46.4375 
Q 26.21875 44.390625 23.390625 40.484375 
Q 20.609375 36.625 18.9375 31.15625 
Q 17.28125 25.6875 17.28125 20.3125 
Q 17.28125 13.484375 20.40625 9.796875 
Q 23.53125 6.109375 29.296875 6.109375 
Q 33.546875 6.109375 37.1875 8.109375 
Q 40.828125 10.109375 43.40625 13.921875 
Q 46.1875 17.921875 47.890625 23.34375 
Q 49.609375 28.765625 49.609375 33.6875 
z
M 21.78125 46.390625 
Q 25.390625 51.125 30.296875 53.5625 
Q 35.203125 56 41.21875 56 
Q 49.609375 56 54.25 50.5 
Q 58.890625 45.015625 58.890625 35.109375 
Q 58.890625 27 56 19.65625 
Q 53.125 12.3125 47.703125 6.5 
Q 44.09375 2.640625 39.546875 0.609375 
Q 35.015625 -1.421875 29.984375 -1.421875 
Q 24.171875 -1.421875 20.21875 1 
Q 16.265625 3.421875 14.3125 8.203125 
L 8.6875 -20.796875 
L -0.296875 -20.796875 
L 14.40625 54.6875 
L 23.390625 54.6875 
z
" id="DejaVuSans-Oblique-112"/>
      <path d="M 42.28125 54.6875 
L 40.921875 47.703125 
L 23 47.703125 
L 17.1875 18.015625 
Q 16.890625 16.359375 16.75 15.234375 
Q 16.609375 14.109375 16.609375 13.484375 
Q 16.609375 10.359375 18.484375 8.9375 
Q 20.359375 7.515625 24.515625 7.515625 
L 33.59375 7.515625 
L 32.078125 0 
L 23.484375 0 
Q 15.484375 0 11.546875 3.125 
Q 7.625 6.25 7.625 12.59375 
Q 7.625 13.71875 7.765625 15.0625 
Q 7.90625 16.40625 8.203125 18.015625 
L 14.015625 47.703125 
L 6.390625 47.703125 
L 7.8125 54.6875 
L 15.28125 54.6875 
L 18.3125 70.21875 
L 27.296875 70.21875 
L 24.3125 54.6875 
z
" id="DejaVuSans-Oblique-116"/>
      <path d="M 44.578125 46.390625 
Q 43.21875 47.125 41.453125 47.515625 
Q 39.703125 47.90625 37.703125 47.90625 
Q 30.515625 47.90625 25.140625 42.453125 
Q 19.78125 37.015625 18.015625 27.875 
L 12.5 0 
L 3.515625 0 
L 14.203125 54.6875 
L 23.1875 54.6875 
L 21.484375 46.1875 
Q 25.046875 50.921875 30 53.453125 
Q 34.96875 56 40.578125 56 
Q 42.046875 56 43.453125 55.828125 
Q 44.875 55.671875 46.296875 55.28125 
z
" id="DejaVuSans-Oblique-114"/>
      <path d="M 53.71875 31.203125 
L 47.609375 0 
L 38.625 0 
L 40.28125 8.296875 
Q 36.328125 3.421875 31.265625 1 
Q 26.21875 -1.421875 20.015625 -1.421875 
Q 13.03125 -1.421875 8.5625 2.84375 
Q 4.109375 7.125 4.109375 13.8125 
Q 4.109375 23.390625 11.75 28.953125 
Q 19.390625 34.515625 32.8125 34.515625 
L 45.3125 34.515625 
L 45.796875 36.921875 
Q 45.90625 37.3125 45.953125 37.765625 
Q 46 38.234375 46 39.203125 
Q 46 43.5625 42.453125 45.96875 
Q 38.921875 48.390625 32.515625 48.390625 
Q 28.125 48.390625 23.5 47.265625 
Q 18.890625 46.140625 14.015625 43.890625 
L 15.578125 52.203125 
Q 20.65625 54.109375 25.515625 55.046875 
Q 30.375 56 34.90625 56 
Q 44.578125 56 49.625 51.796875 
Q 54.6875 47.609375 54.6875 39.59375 
Q 54.6875 37.984375 54.4375 35.8125 
Q 54.203125 33.640625 53.71875 31.203125 
z
M 44 27.484375 
L 35.015625 27.484375 
Q 23.96875 27.484375 18.671875 24.53125 
Q 13.375 21.578125 13.375 15.375 
Q 13.375 11.078125 16.078125 8.640625 
Q 18.796875 6.203125 23.578125 6.203125 
Q 30.90625 6.203125 36.375 11.453125 
Q 41.84375 16.703125 43.609375 25.484375 
z
" id="DejaVuSans-Oblique-97"/>
      <path d="M 18.3125 75.984375 
L 27.296875 75.984375 
L 25.09375 64.59375 
L 16.109375 64.59375 
z
M 14.203125 54.6875 
L 23.1875 54.6875 
L 12.5 0 
L 3.515625 0 
z
" id="DejaVuSans-Oblique-105"/>
      <path d="M 55.71875 33.015625 
L 49.3125 0 
L 40.28125 0 
L 46.6875 32.671875 
Q 47.125 34.96875 47.359375 36.71875 
Q 47.609375 38.484375 47.609375 39.5 
Q 47.609375 43.609375 45.015625 45.890625 
Q 42.4375 48.1875 37.796875 48.1875 
Q 30.5625 48.1875 25.34375 43.375 
Q 20.125 38.578125 18.5 30.328125 
L 12.5 0 
L 3.515625 0 
L 14.109375 54.6875 
L 23.09375 54.6875 
L 21.296875 46.09375 
Q 25.046875 50.828125 30.3125 53.40625 
Q 35.59375 56 41.40625 56 
Q 48.640625 56 52.609375 52.09375 
Q 56.59375 48.1875 56.59375 41.109375 
Q 56.59375 39.359375 56.375 37.359375 
Q 56.15625 35.359375 55.71875 33.015625 
z
" id="DejaVuSans-Oblique-110"/>
     </defs>
     <g transform="translate(60.678125 240.119375)scale(0.2 -0.2)">
      <use transform="translate(0 0.703125)" xlink:href="#STIXGeneral-Regular-82"/>
      <use transform="translate(66.699997 0.703125)" xlink:href="#STIXGeneral-Regular-97"/>
      <use transform="translate(111.099991 0.703125)" xlink:href="#STIXGeneral-Regular-110"/>
      <use transform="translate(161.099976 0.703125)" xlink:href="#STIXGeneral-Regular-107"/>
      <use transform="translate(211.09996 0.703125)" xlink:href="#STIXGeneral-Regular-32"/>
      <use transform="translate(236.099945 0.703125)" xlink:href="#STIXGeneral-Regular-108"/>
      <use transform="translate(263.899933 0.703125)" xlink:href="#STIXGeneral-Regular-111"/>
      <use transform="translate(313.899918 0.703125)" xlink:href="#STIXGeneral-Regular-115"/>
      <use transform="translate(352.799911 0.703125)" xlink:href="#STIXGeneral-Regular-115"/>
      <use transform="translate(391.699905 0.703125)" xlink:href="#STIXGeneral-Regular-32"/>
      <use transform="translate(416.69989 0.703125)" xlink:href="#STIXGeneral-Regular-119"/>
      <use transform="translate(488.899872 0.703125)" xlink:href="#STIXGeneral-Regular-105"/>
      <use transform="translate(516.69986 0.703125)" xlink:href="#STIXGeneral-Regular-116"/>
      <use transform="translate(544.499847 0.703125)" xlink:href="#STIXGeneral-Regular-104"/>
      <use transform="translate(594.499832 0.703125)" xlink:href="#STIXGeneral-Regular-32"/>
      <use transform="translate(619.499817 0.703125)" xlink:href="#DejaVuSans-Oblique-112"/>
      <use transform="translate(682.976379 -15.703125)scale(0.7)" xlink:href="#DejaVuSans-Oblique-116"/>
      <use transform="translate(710.422668 -15.703125)scale(0.7)" xlink:href="#DejaVuSans-Oblique-114"/>
      <use transform="translate(739.201965 -15.703125)scale(0.7)" xlink:href="#DejaVuSans-Oblique-97"/>
      <use transform="translate(782.097473 -15.703125)scale(0.7)" xlink:href="#DejaVuSans-Oblique-105"/>
      <use transform="translate(801.545715 -15.703125)scale(0.7)" xlink:href="#DejaVuSans-Oblique-110"/>
     </g>
    </g>
   </g>
   <g id="matplotlib.axis_2">
    <g id="ytick_1">
     <g id="line2d_3">
      <defs>
       <path d="M 0 0 
L -3.5 0 
" id="mc4a9ab20ac" style="stroke:#000000;stroke-width:0.8;"/>
      </defs>
      <g>
       <use style="stroke:#000000;stroke-width:0.8;" x="61.878125" xlink:href="#mc4a9ab20ac" y="182.948644"/>
      </g>
     </g>
     <g id="text_4">
      <!-- e p5 -->
      <defs>
       <path d="M 40.796875 16.40625 
L 42.40625 15.703125 
Q 36.40625 -1 21.5 -1 
Q 12.703125 -1 7.59375 5.140625 
Q 2.5 11.296875 2.5 21.703125 
Q 2.5 32.40625 8.203125 39.203125 
Q 13.90625 46 23.203125 46 
Q 32.203125 46 37.09375 39.09375 
Q 40 35.09375 40.5 27.703125 
L 9.703125 27.703125 
Q 10.09375 21.40625 10.9375 18.09375 
Q 11.796875 14.796875 14.296875 11.40625 
Q 18.5 5.90625 25.40625 5.90625 
Q 30.296875 5.90625 33.640625 8.296875 
Q 37 10.703125 40.796875 16.40625 
z
M 9.90625 30.90625 
L 30.296875 30.90625 
Q 29.40625 37.203125 27.34375 39.796875 
Q 25.296875 42.40625 20.5 42.40625 
Q 16.296875 42.40625 13.5 39.453125 
Q 10.703125 36.5 9.90625 30.90625 
z
" id="STIXGeneral-Regular-101"/>
       <path d="M 15.90625 45.796875 
L 15.90625 38.09375 
Q 22.203125 46 30.296875 46 
Q 37.59375 46 42.296875 40 
Q 47 34 47 24.703125 
Q 47 13.796875 40.953125 6.390625 
Q 34.90625 -1 26 -1 
Q 22.90625 -1 20.75 -0.09375 
Q 18.59375 0.796875 15.90625 3.296875 
L 15.90625 -12.40625 
Q 15.90625 -17.09375 17.5 -18.4375 
Q 19.09375 -19.796875 24.703125 -19.90625 
L 24.703125 -21.703125 
L 0.5 -21.703125 
L 0.5 -20 
Q 4.90625 -19.59375 6.203125 -18.296875 
Q 7.5 -17 7.5 -13.09375 
L 7.5 33.703125 
Q 7.5 37.203125 6.703125 38.296875 
Q 5.90625 39.40625 3.40625 39.40625 
Q 1.796875 39.40625 0.90625 39.296875 
L 0.90625 40.90625 
Q 7.90625 43 15.296875 46 
z
M 15.90625 33.40625 
L 15.90625 8.796875 
Q 15.90625 6.59375 19.34375 4.390625 
Q 22.796875 2.203125 26.296875 2.203125 
Q 31.703125 2.203125 35.046875 7.296875 
Q 38.40625 12.40625 38.40625 20.703125 
Q 38.40625 29.5 35.046875 34.75 
Q 31.703125 40 26.09375 40 
Q 22.59375 40 19.25 37.796875 
Q 15.90625 35.59375 15.90625 33.40625 
z
" id="STIXGeneral-Regular-112"/>
      </defs>
      <g transform="translate(20.996875 189.828332)scale(0.2 -0.2)">
       <use xlink:href="#STIXGeneral-Regular-101"/>
       <use x="44.399994" xlink:href="#STIXGeneral-Regular-32"/>
       <use x="69.399979" xlink:href="#STIXGeneral-Regular-112"/>
       <use x="119.399963" xlink:href="#STIXGeneral-Regular-53"/>
      </g>
     </g>
    </g>
    <g id="ytick_2">
     <g id="line2d_4">
      <g>
       <use style="stroke:#000000;stroke-width:0.8;" x="61.878125" xlink:href="#mc4a9ab20ac" y="168.290709"/>
      </g>
     </g>
     <g id="text_5">
      <!-- +a# -->
      <defs>
       <path d="M 63.59375 22 
L 37.5 22 
L 37.5 -4.09375 
L 30.90625 -4.09375 
L 30.90625 22 
L 4.796875 22 
L 4.796875 28.59375 
L 30.90625 28.59375 
L 30.90625 54.703125 
L 37.5 54.703125 
L 37.5 28.59375 
L 63.59375 28.59375 
z
" id="STIXGeneral-Regular-43"/>
       <path d="M 49.5 40.5 
L 39.09375 40.5 
L 37.09375 27.09375 
L 47 27.09375 
L 47 21.59375 
L 36.203125 21.59375 
L 33.09375 0 
L 27.296875 0 
L 30.40625 21.59375 
L 17 21.59375 
L 13.703125 0 
L 7.90625 0 
L 11.203125 21.59375 
L 0.59375 21.59375 
L 0.59375 27.09375 
L 12.09375 27.09375 
L 14.203125 40.5 
L 3.296875 40.5 
L 3.296875 46 
L 15 46 
L 18.09375 66.203125 
L 23.90625 66.203125 
L 20.796875 46 
L 34.09375 46 
L 37.09375 66.203125 
L 42.90625 66.203125 
L 39.90625 46 
L 49.5 46 
z
M 33.296875 40.5 
L 20 40.5 
L 17.90625 27.09375 
L 31.296875 27.09375 
z
" id="STIXGeneral-Regular-35"/>
      </defs>
      <g transform="translate(22.296875 175.120396)scale(0.2 -0.2)">
       <use xlink:href="#STIXGeneral-Regular-43"/>
       <use x="68.499985" xlink:href="#STIXGeneral-Regular-97"/>
       <use x="112.899979" xlink:href="#STIXGeneral-Regular-35"/>
      </g>
     </g>
    </g>
    <g id="ytick_3">
     <g id="line2d_5">
      <g>
       <use style="stroke:#000000;stroke-width:0.8;" x="61.878125" xlink:href="#mc4a9ab20ac" y="153.632773"/>
      </g>
     </g>
     <g id="text_6">
      <!-- v p2 -->
      <defs>
       <path d="M 47.703125 45 
L 47.703125 43.5 
Q 45.40625 43.296875 44.296875 42 
Q 43.203125 40.703125 41.203125 35.703125 
L 28.40625 3.59375 
Q 26.40625 -1.40625 25.59375 -1.40625 
Q 24.796875 -1.40625 23.796875 1.203125 
Q 23.59375 1.5 23.390625 2.203125 
Q 23.203125 2.90625 23 3.296875 
L 11 32 
Q 7.796875 39.59375 6.296875 41.4375 
Q 4.796875 43.296875 1.90625 43.5 
L 1.90625 45 
L 21.5 45 
L 21.5 43.5 
Q 18.90625 43.296875 17.90625 42.6875 
Q 16.90625 42.09375 16.90625 40.796875 
Q 16.90625 39.203125 17.796875 37 
L 28 11.40625 
L 37.90625 37.296875 
Q 38.5 38.796875 38.5 40.296875 
Q 38.5 43.09375 33.796875 43.5 
L 33.796875 45 
z
" id="STIXGeneral-Regular-118"/>
      </defs>
      <g transform="translate(19.878125 160.462461)scale(0.2 -0.2)">
       <use xlink:href="#STIXGeneral-Regular-118"/>
       <use x="49.999985" xlink:href="#STIXGeneral-Regular-32"/>
       <use x="74.999969" xlink:href="#STIXGeneral-Regular-112"/>
       <use x="124.999954" xlink:href="#STIXGeneral-Regular-50"/>
      </g>
     </g>
    </g>
    <g id="ytick_4">
     <g id="line2d_6">
      <g>
       <use style="stroke:#000000;stroke-width:0.8;" x="61.878125" xlink:href="#mc4a9ab20ac" y="138.974838"/>
      </g>
     </g>
     <g id="text_7">
      <!-- +a@ -->
      <defs>
       <path d="M 68.796875 7.296875 
L 70 4.296875 
Q 58 -1.40625 48.203125 -1.40625 
Q 32.5 -1.40625 22.046875 8.296875 
Q 11.59375 18 11.59375 32.703125 
Q 11.59375 41.09375 15.390625 48.5 
Q 19.203125 55.90625 25.703125 60.703125 
Q 35 67.59375 48.09375 67.59375 
Q 62 67.59375 71.453125 59.140625 
Q 80.90625 50.703125 80.90625 38.296875 
Q 80.90625 28.59375 75.40625 21.4375 
Q 69.90625 14.296875 62.5 14.296875 
Q 59.09375 14.296875 56.546875 16.34375 
Q 54 18.40625 53.59375 21.59375 
L 53.40625 21.59375 
Q 48.40625 14.40625 40.90625 14.40625 
Q 37.09375 14.40625 34.59375 17.453125 
Q 32.09375 20.5 32.09375 25.59375 
Q 32.09375 35.203125 38.703125 43.796875 
Q 44 50.796875 51.5 50.796875 
Q 56.90625 50.796875 58.796875 45.59375 
L 59 45.59375 
L 59.90625 49.40625 
L 66.796875 49.40625 
L 60.296875 24 
Q 60.09375 23 60.09375 22.296875 
Q 60.09375 17.59375 64.296875 17.59375 
Q 69.203125 17.59375 73.046875 23.640625 
Q 76.90625 29.703125 76.90625 37.296875 
Q 76.90625 48.5 68.453125 56.5 
Q 60 64.5 48.203125 64.5 
Q 34.203125 64.5 26.203125 53 
Q 20 44.09375 20 32.203125 
Q 20 19.09375 27.953125 10.796875 
Q 35.90625 2.5 48.703125 2.5 
Q 58.90625 2.5 68.796875 7.296875 
z
M 57.203125 40.40625 
Q 57.203125 46.40625 52.59375 46.40625 
Q 47.5 46.40625 42.796875 39.40625 
Q 39.203125 34 39.203125 27.40625 
Q 39.203125 23.40625 40.796875 21.046875 
Q 42.40625 18.703125 45.203125 18.703125 
Q 49.59375 18.703125 52.796875 24.5 
Q 57.203125 32.796875 57.203125 40.40625 
z
" id="STIXGeneral-Regular-64"/>
      </defs>
      <g transform="translate(13.878125 145.804526)scale(0.2 -0.2)">
       <use xlink:href="#STIXGeneral-Regular-43"/>
       <use x="68.499985" xlink:href="#STIXGeneral-Regular-97"/>
       <use x="112.899979" xlink:href="#STIXGeneral-Regular-64"/>
      </g>
     </g>
    </g>
    <g id="ytick_5">
     <g id="line2d_7">
      <g>
       <use style="stroke:#000000;stroke-width:0.8;" x="61.878125" xlink:href="#mc4a9ab20ac" y="124.316903"/>
      </g>
     </g>
     <g id="text_8">
      <!-- e p2 -->
      <g transform="translate(20.996875 131.14659)scale(0.2 -0.2)">
       <use xlink:href="#STIXGeneral-Regular-101"/>
       <use x="44.399994" xlink:href="#STIXGeneral-Regular-32"/>
       <use x="69.399979" xlink:href="#STIXGeneral-Regular-112"/>
       <use x="119.399963" xlink:href="#STIXGeneral-Regular-50"/>
      </g>
     </g>
    </g>
    <g id="ytick_6">
     <g id="line2d_8">
      <g>
       <use style="stroke:#000000;stroke-width:0.8;" x="61.878125" xlink:href="#mc4a9ab20ac" y="109.658968"/>
      </g>
     </g>
     <g id="text_9">
      <!-- +m@ -->
      <defs>
       <path d="M 77.5 0 
L 55.703125 0 
L 55.703125 1.5 
Q 59.90625 1.90625 61.046875 3.25 
Q 62.203125 4.59375 62.203125 9 
L 62.203125 29.59375 
Q 62.203125 35.59375 60.453125 38.1875 
Q 58.703125 40.796875 54.5 40.796875 
Q 51 40.796875 48.546875 39.390625 
Q 46.09375 38 43.796875 34.703125 
L 43.796875 9.5 
Q 43.796875 4.703125 45.25 3.140625 
Q 46.703125 1.59375 51 1.5 
L 51 0 
L 28.59375 0 
L 28.59375 1.5 
Q 33 1.796875 34.203125 2.9375 
Q 35.40625 4.09375 35.40625 8.59375 
L 35.40625 29.703125 
Q 35.40625 40.796875 28.90625 40.796875 
Q 26.09375 40.796875 22.9375 39.546875 
Q 19.796875 38.296875 18.296875 36.5 
Q 17 35 17 34.796875 
L 17 7 
Q 17 3.796875 18.390625 2.75 
Q 19.796875 1.703125 23.796875 1.5 
L 23.796875 0 
L 1.59375 0 
L 1.59375 1.5 
Q 5.796875 1.59375 7.1875 3.046875 
Q 8.59375 4.5 8.59375 8.796875 
L 8.59375 33.59375 
Q 8.59375 37.296875 7.796875 38.75 
Q 7 40.203125 5.09375 40.203125 
Q 3.59375 40.203125 1.90625 39.796875 
L 1.90625 41.5 
Q 8.703125 43.40625 15.796875 46 
L 16.59375 45.703125 
L 16.59375 38.296875 
L 16.796875 38.296875 
Q 21.296875 43 24.75 44.5 
Q 28.203125 46 32.09375 46 
Q 40 46 42.703125 37.59375 
Q 50.5 46 59 46 
Q 70.59375 46 70.59375 28 
L 70.59375 7.703125 
Q 70.59375 4.40625 71.59375 3.15625 
Q 72.59375 1.90625 74.90625 1.703125 
L 77.5 1.5 
z
" id="STIXGeneral-Regular-109"/>
      </defs>
      <g transform="translate(7.2 116.488655)scale(0.2 -0.2)">
       <use xlink:href="#STIXGeneral-Regular-43"/>
       <use x="68.499985" xlink:href="#STIXGeneral-Regular-109"/>
       <use x="146.299973" xlink:href="#STIXGeneral-Regular-64"/>
      </g>
     </g>
    </g>
    <g id="ytick_7">
     <g id="line2d_9">
      <g>
       <use style="stroke:#000000;stroke-width:0.8;" x="61.878125" xlink:href="#mc4a9ab20ac" y="95.001032"/>
      </g>
     </g>
     <g id="text_10">
      <!-- +m# -->
      <g transform="translate(15.61875 101.83072)scale(0.2 -0.2)">
       <use xlink:href="#STIXGeneral-Regular-43"/>
       <use x="68.499985" xlink:href="#STIXGeneral-Regular-109"/>
       <use x="146.299973" xlink:href="#STIXGeneral-Regular-35"/>
      </g>
     </g>
    </g>
    <g id="ytick_8">
     <g id="line2d_10">
      <g>
       <use style="stroke:#000000;stroke-width:0.8;" x="61.878125" xlink:href="#mc4a9ab20ac" y="80.343097"/>
      </g>
     </g>
     <g id="text_11">
      <!-- !a@ -->
      <defs>
       <path d="M 17.5 17.59375 
L 13.296875 55.703125 
Q 13 58.703125 13 60 
Q 13 67.59375 18.296875 67.59375 
Q 20.796875 67.59375 22.1875 65.390625 
Q 23.59375 63.203125 23.59375 59.5 
Q 23.59375 57.90625 23.40625 55.703125 
L 18.90625 17.59375 
z
M 23.59375 4.203125 
Q 23.59375 2 22.046875 0.546875 
Q 20.5 -0.90625 18.203125 -0.90625 
Q 16 -0.90625 14.5 0.546875 
Q 13 2 13 4.296875 
Q 13 6.59375 14.546875 8.140625 
Q 16.09375 9.703125 18.296875 9.703125 
Q 20.5 9.703125 22.046875 8.09375 
Q 23.59375 6.5 23.59375 4.203125 
z
" id="STIXGeneral-Regular-33"/>
      </defs>
      <g transform="translate(20.91875 87.172785)scale(0.2 -0.2)">
       <use xlink:href="#STIXGeneral-Regular-33"/>
       <use x="33.299988" xlink:href="#STIXGeneral-Regular-97"/>
       <use x="77.699982" xlink:href="#STIXGeneral-Regular-64"/>
      </g>
     </g>
    </g>
    <g id="ytick_9">
     <g id="line2d_11">
      <g>
       <use style="stroke:#000000;stroke-width:0.8;" x="61.878125" xlink:href="#mc4a9ab20ac" y="65.685162"/>
      </g>
     </g>
     <g id="text_12">
      <!-- !a# -->
      <g transform="translate(29.3375 72.514849)scale(0.2 -0.2)">
       <use xlink:href="#STIXGeneral-Regular-33"/>
       <use x="33.299988" xlink:href="#STIXGeneral-Regular-97"/>
       <use x="77.699982" xlink:href="#STIXGeneral-Regular-35"/>
      </g>
     </g>
    </g>
    <g id="ytick_10">
     <g id="line2d_12">
      <g>
       <use style="stroke:#000000;stroke-width:0.8;" x="61.878125" xlink:href="#mc4a9ab20ac" y="51.027227"/>
      </g>
     </g>
     <g id="text_13">
      <!-- !m# -->
      <g transform="translate(22.659375 57.856914)scale(0.2 -0.2)">
       <use xlink:href="#STIXGeneral-Regular-33"/>
       <use x="33.299988" xlink:href="#STIXGeneral-Regular-109"/>
       <use x="111.099976" xlink:href="#STIXGeneral-Regular-35"/>
      </g>
     </g>
    </g>
    <g id="ytick_11">
     <g id="line2d_13">
      <g>
       <use style="stroke:#000000;stroke-width:0.8;" x="61.878125" xlink:href="#mc4a9ab20ac" y="36.369291"/>
      </g>
     </g>
     <g id="text_14">
      <!-- !m@ -->
      <g transform="translate(14.240625 43.198979)scale(0.2 -0.2)">
       <use xlink:href="#STIXGeneral-Regular-33"/>
       <use x="33.299988" xlink:href="#STIXGeneral-Regular-109"/>
       <use x="111.099976" xlink:href="#STIXGeneral-Regular-64"/>
      </g>
     </g>
    </g>
    <g id="ytick_12">
     <g id="line2d_14">
      <g>
       <use style="stroke:#000000;stroke-width:0.8;" x="61.878125" xlink:href="#mc4a9ab20ac" y="21.711356"/>
      </g>
     </g>
     <g id="text_15">
      <!-- v p5 -->
      <g transform="translate(19.878125 28.591043)scale(0.2 -0.2)">
       <use xlink:href="#STIXGeneral-Regular-118"/>
       <use x="49.999985" xlink:href="#STIXGeneral-Regular-32"/>
       <use x="74.999969" xlink:href="#STIXGeneral-Regular-112"/>
       <use x="124.999954" xlink:href="#STIXGeneral-Regular-53"/>
      </g>
     </g>
    </g>
   </g>
   <g id="patch_15">
    <path d="M 61.878125 197.46 
L 61.878125 7.2 
" style="fill:none;stroke:#000000;stroke-linecap:square;stroke-linejoin:miter;stroke-width:0.8;"/>
   </g>
   <g id="patch_16">
    <path d="M 229.278125 197.46 
L 229.278125 7.2 
" style="fill:none;stroke:#000000;stroke-linecap:square;stroke-linejoin:miter;stroke-width:0.8;"/>
   </g>
   <g id="patch_17">
    <path d="M 61.878125 197.46 
L 229.278125 197.46 
" style="fill:none;stroke:#000000;stroke-linecap:square;stroke-linejoin:miter;stroke-width:0.8;"/>
   </g>
   <g id="patch_18">
    <path d="M 61.878125 7.2 
L 229.278125 7.2 
" style="fill:none;stroke:#000000;stroke-linecap:square;stroke-linejoin:miter;stroke-width:0.8;"/>
   </g>
   <g id="text_16">
    <!-- a: Acc. -->
    <defs>
     <path d="M 15.90625 45.90625 
Q 19.203125 42.59375 19.203125 40.296875 
Q 19.203125 38 17.59375 36.390625 
Q 16 34.796875 13.703125 34.796875 
Q 11.40625 34.796875 9.75 36.4375 
Q 8.09375 38.09375 8.09375 40.296875 
Q 8.09375 42.703125 9.6875 44.296875 
Q 11.296875 45.90625 13.703125 45.90625 
Q 15.90625 45.90625 19.203125 42.59375 
z
M 19.203125 4.40625 
Q 19.203125 2.203125 17.59375 0.546875 
Q 16 -1.09375 13.703125 -1.09375 
Q 11.40625 -1.09375 9.75 0.546875 
Q 8.09375 2.203125 8.09375 4.40625 
Q 8.09375 6.796875 9.6875 8.390625 
Q 11.296875 10 13.703125 10 
Q 15.90625 10 17.546875 8.34375 
Q 19.203125 6.703125 19.203125 4.40625 
z
" id="STIXGeneral-Regular-58"/>
     <path d="M 70.703125 0 
L 45.203125 0 
L 45.203125 1.90625 
Q 49.203125 1.90625 50.703125 2.796875 
Q 52.09375 3.5 52.09375 5.203125 
Q 52.09375 7.796875 50.203125 12.203125 
L 46.09375 21.59375 
L 19.90625 21.59375 
L 15.296875 10.203125 
Q 14.40625 7.90625 14.40625 6 
Q 14.40625 3.703125 16.046875 2.796875 
Q 17.703125 1.90625 21.40625 1.90625 
L 21.40625 0 
L 1.5 0 
L 1.5 1.90625 
Q 5.703125 2.296875 7.59375 4.9375 
Q 9.5 7.59375 14.09375 18.59375 
L 34.703125 67.40625 
L 36.703125 67.40625 
L 61.296875 11.09375 
Q 63.5 5.90625 65.25 4.09375 
Q 67 2.296875 70.703125 1.90625 
z
M 44.703125 25.703125 
L 33.09375 53.203125 
L 21.59375 25.703125 
z
" id="STIXGeneral-Regular-65"/>
     <path d="M 39.796875 15.59375 
L 41.203125 14.703125 
Q 36.90625 6.296875 33 3.203125 
Q 27.90625 -1 21.5 -1 
Q 13.203125 -1 7.84375 5.25 
Q 2.5 11.5 2.5 21.203125 
Q 2.5 33.90625 10.90625 40.90625 
Q 17.09375 46 24.40625 46 
Q 30.703125 46 35.25 42.953125 
Q 39.796875 39.90625 39.796875 35.703125 
Q 39.796875 34 38.390625 32.75 
Q 37 31.5 35.09375 31.5 
Q 31.59375 31.5 30.296875 36.09375 
L 29.703125 38.296875 
Q 28.90625 41.09375 27.703125 42.09375 
Q 26.5 43.09375 23.796875 43.09375 
Q 17.703125 43.09375 13.953125 38.296875 
Q 10.203125 33.5 10.203125 25.703125 
Q 10.203125 17.09375 14.5 11.640625 
Q 18.796875 6.203125 25.703125 6.203125 
Q 30 6.203125 33.09375 8.25 
Q 36.203125 10.296875 39.796875 15.59375 
z
" id="STIXGeneral-Regular-99"/>
    </defs>
    <g transform="translate(93.138629 20.820385)scale(0.15 -0.15)">
     <use xlink:href="#STIXGeneral-Regular-97"/>
     <use x="44.399994" xlink:href="#STIXGeneral-Regular-58"/>
     <use x="72.199982" xlink:href="#STIXGeneral-Regular-32"/>
     <use x="97.199966" xlink:href="#STIXGeneral-Regular-65"/>
     <use x="169.399948" xlink:href="#STIXGeneral-Regular-99"/>
     <use x="213.799942" xlink:href="#STIXGeneral-Regular-99"/>
     <use x="258.199936" xlink:href="#STIXGeneral-Regular-46"/>
    </g>
    <!-- m: MAE -->
    <defs>
     <path d="M 86.40625 0 
L 58.40625 0 
L 58.40625 1.90625 
Q 64.296875 2.296875 65.84375 4.140625 
Q 67.40625 6 67.40625 12.296875 
L 67.40625 57.203125 
L 41.90625 0 
L 40.5 0 
L 15.296875 54.90625 
L 15.296875 15.09375 
Q 15.296875 7 17 4.59375 
Q 18.703125 2.203125 24.59375 1.90625 
L 24.59375 0 
L 1.203125 0 
L 1.203125 1.90625 
Q 5.59375 2.203125 7.5 3.203125 
Q 9.40625 4.203125 10.15625 6.75 
Q 10.90625 9.296875 10.90625 15.09375 
L 10.90625 54.90625 
Q 10.90625 60.59375 9.203125 62.25 
Q 7.5 63.90625 1.40625 64.296875 
L 1.40625 66.203125 
L 21.203125 66.203125 
L 44.296875 16 
L 66.40625 66.203125 
L 86.296875 66.203125 
L 86.296875 64.296875 
Q 80.90625 64.203125 79.25 62.390625 
Q 77.59375 60.59375 77.59375 55 
L 77.59375 11.203125 
Q 77.59375 5.90625 79.25 4.09375 
Q 80.90625 2.296875 86.40625 1.90625 
z
" id="STIXGeneral-Regular-77"/>
     <path d="M 59.703125 16.90625 
L 55.09375 0 
L 1.203125 0 
L 1.203125 1.90625 
Q 6.90625 2.296875 8.40625 3.9375 
Q 9.90625 5.59375 9.90625 11.40625 
L 9.90625 55 
Q 9.90625 60.59375 8.34375 62.296875 
Q 6.796875 64 1.203125 64.296875 
L 1.203125 66.203125 
L 54.203125 66.203125 
L 54.59375 51.90625 
L 52.09375 51.90625 
Q 51 58.59375 48.203125 60.5 
Q 45.40625 62.40625 36.703125 62.40625 
L 23.59375 62.40625 
Q 21.40625 62.40625 20.75 61.75 
Q 20.09375 61.09375 20.09375 58.796875 
L 20.09375 36.796875 
L 35.203125 36.796875 
Q 41.5 36.796875 43.546875 38.59375 
Q 45.59375 40.40625 46.5 46.40625 
L 48.796875 46.40625 
L 48.796875 23 
L 46.5 23 
Q 45.59375 29.296875 43.59375 31 
Q 41.59375 32.703125 35.203125 32.703125 
L 20.09375 32.703125 
L 20.09375 8.40625 
Q 20.09375 5.40625 22.1875 4.546875 
Q 24.296875 3.703125 30.203125 3.703125 
L 33.796875 3.703125 
Q 44.5 3.703125 49 6.296875 
Q 53.5 8.90625 56.90625 16.90625 
z
" id="STIXGeneral-Regular-69"/>
    </defs>
    <g transform="translate(93.138629 36.369291)scale(0.15 -0.15)">
     <use xlink:href="#STIXGeneral-Regular-109"/>
     <use x="77.799988" xlink:href="#STIXGeneral-Regular-58"/>
     <use x="105.599976" xlink:href="#STIXGeneral-Regular-32"/>
     <use x="130.59996" xlink:href="#STIXGeneral-Regular-77"/>
     <use x="219.499954" xlink:href="#STIXGeneral-Regular-65"/>
     <use x="291.699936" xlink:href="#STIXGeneral-Regular-69"/>
    </g>
   </g>
   <g id="legend_1">
    <g id="patch_19">
     <path d="M 156.078125 142.395 
L 247.800781 142.395 
Q 250.800781 142.395 250.800781 139.395 
L 250.800781 13.362187 
Q 250.800781 10.362187 247.800781 10.362187 
L 156.078125 10.362187 
Q 153.078125 10.362187 153.078125 13.362187 
L 153.078125 139.395 
Q 153.078125 142.395 156.078125 142.395 
z
" style="fill:#ffffff;opacity:0.8;stroke:#cccccc;stroke-linejoin:miter;"/>
    </g>
    <g id="patch_20">
     <path d="M 159.078125 26.862187 
L 189.078125 26.862187 
L 189.078125 16.362187 
L 159.078125 16.362187 
z
" style="fill:#ff0000;"/>
    </g>
    <g id="text_17">
     <!-- !: Crash -->
     <defs>
      <path d="M 61.40625 13.09375 
L 63.296875 11.296875 
Q 54.40625 -1.40625 36 -1.40625 
Q 21.5 -1.40625 12.40625 7.5 
Q 2.796875 16.90625 2.796875 32.5 
Q 2.796875 47.09375 11.796875 57.203125 
Q 21.203125 67.59375 36.09375 67.59375 
Q 42.5 67.59375 48 66.09375 
Q 54.296875 64.296875 54.90625 64.296875 
Q 58.203125 64.296875 59.09375 67.59375 
L 61.09375 67.59375 
L 62 44.90625 
L 59.703125 44.90625 
Q 58.09375 52.09375 54.5 56 
Q 47.40625 63.59375 38.40625 63.59375 
Q 27.296875 63.59375 20.84375 55.4375 
Q 14.40625 47.296875 14.40625 34.09375 
Q 14.40625 18 21.59375 10.203125 
Q 28.296875 3 39.40625 3 
Q 46 3 50.796875 5.296875 
Q 55.59375 7.59375 61.40625 13.09375 
z
" id="STIXGeneral-Regular-67"/>
      <path d="M 16 45.796875 
L 16 36.59375 
Q 19.796875 42 22.34375 44 
Q 24.90625 46 28 46 
Q 30.59375 46 32.046875 44.59375 
Q 33.5 43.203125 33.5 40.703125 
Q 33.5 38.59375 32.453125 37.390625 
Q 31.40625 36.203125 29.59375 36.203125 
Q 27.703125 36.203125 25.59375 38.203125 
Q 24 39.703125 23 39.703125 
Q 20.90625 39.703125 18.453125 36.796875 
Q 16 33.90625 16 31.5 
L 16 9 
Q 16 4.703125 17.703125 3.203125 
Q 19.40625 1.703125 24.5 1.5 
L 24.5 0 
L 0.5 0 
L 0.5 1.5 
Q 5.296875 2.40625 6.4375 3.5 
Q 7.59375 4.59375 7.59375 8.40625 
L 7.59375 33.40625 
Q 7.59375 36.703125 6.84375 38.046875 
Q 6.09375 39.40625 4.203125 39.40625 
Q 2.59375 39.40625 0.703125 39 
L 0.703125 40.59375 
Q 7 42.59375 15.5 46 
z
" id="STIXGeneral-Regular-114"/>
     </defs>
     <g transform="translate(190.578125 26.862187)scale(0.15 -0.15)">
      <use xlink:href="#STIXGeneral-Regular-33"/>
      <use x="33.299988" xlink:href="#STIXGeneral-Regular-58"/>
      <use x="61.099976" xlink:href="#STIXGeneral-Regular-32"/>
      <use x="86.09996" xlink:href="#STIXGeneral-Regular-67"/>
      <use x="152.799957" xlink:href="#STIXGeneral-Regular-114"/>
      <use x="186.099945" xlink:href="#STIXGeneral-Regular-97"/>
      <use x="230.499939" xlink:href="#STIXGeneral-Regular-115"/>
      <use x="269.399933" xlink:href="#STIXGeneral-Regular-104"/>
     </g>
    </g>
    <g id="patch_21">
     <path d="M 159.078125 48.117656 
L 189.078125 48.117656 
L 189.078125 37.617656 
L 159.078125 37.617656 
z
" style="fill:#008000;"/>
    </g>
    <g id="text_18">
     <!-- +: Corr -->
     <g transform="translate(190.578125 48.117656)scale(0.15 -0.15)">
      <use xlink:href="#STIXGeneral-Regular-43"/>
      <use x="68.499985" xlink:href="#STIXGeneral-Regular-58"/>
      <use x="96.299973" xlink:href="#STIXGeneral-Regular-32"/>
      <use x="121.299957" xlink:href="#STIXGeneral-Regular-67"/>
      <use x="187.999954" xlink:href="#STIXGeneral-Regular-111"/>
      <use x="237.999939" xlink:href="#STIXGeneral-Regular-114"/>
      <use x="271.299927" xlink:href="#STIXGeneral-Regular-114"/>
     </g>
    </g>
    <g id="patch_22">
     <path d="M 159.078125 69.373125 
L 189.078125 69.373125 
L 189.078125 58.873125 
L 159.078125 58.873125 
z
" style="fill:#0000ff;"/>
    </g>
    <g id="text_19">
     <!-- v: Var$\Delta$ -->
     <defs>
      <path d="M 69.703125 66.203125 
L 69.703125 64.296875 
Q 66.59375 64.203125 64.59375 62.34375 
Q 62.59375 60.5 60.5 55.203125 
L 38.296875 -1.09375 
L 36.796875 -1.09375 
L 12.40625 53.296875 
Q 9.203125 60.40625 7.296875 62.296875 
Q 5.40625 64.203125 1.59375 64.296875 
L 1.59375 66.203125 
L 28.09375 66.203125 
L 28.09375 64.296875 
L 25.296875 64.09375 
Q 20.796875 63.796875 20.796875 61 
Q 20.796875 59 24.703125 50.296875 
L 39.90625 16.09375 
L 54.59375 53 
Q 56.5 57.796875 56.5 60.203125 
Q 56.5 60.90625 56.34375 61.453125 
Q 56.203125 62 56 62.390625 
Q 55.796875 62.796875 55.25 63.09375 
Q 54.703125 63.40625 54.390625 63.546875 
Q 54.09375 63.703125 53.296875 63.84375 
Q 52.5 64 52.140625 64.046875 
Q 51.796875 64.09375 50.75 64.1875 
Q 49.703125 64.296875 49.296875 64.296875 
L 49.296875 66.203125 
z
" id="STIXGeneral-Regular-86"/>
      <path d="M 34.1875 63.1875 
L 14.15625 8.203125 
L 54.25 8.203125 
z
M 0.78125 0 
L 28.609375 72.90625 
L 39.796875 72.90625 
L 67.578125 0 
z
" id="DejaVuSans-916"/>
     </defs>
     <g transform="translate(190.578125 69.373125)scale(0.15 -0.15)">
      <use transform="translate(0 0.09375)" xlink:href="#STIXGeneral-Regular-118"/>
      <use transform="translate(49.999985 0.09375)" xlink:href="#STIXGeneral-Regular-58"/>
      <use transform="translate(77.799973 0.09375)" xlink:href="#STIXGeneral-Regular-32"/>
      <use transform="translate(102.799957 0.09375)" xlink:href="#STIXGeneral-Regular-86"/>
      <use transform="translate(174.999939 0.09375)" xlink:href="#STIXGeneral-Regular-97"/>
      <use transform="translate(219.399933 0.09375)" xlink:href="#STIXGeneral-Regular-114"/>
      <use transform="translate(252.699921 0.09375)" xlink:href="#DejaVuSans-916"/>
     </g>
    </g>
    <g id="patch_23">
     <path d="M 159.078125 90.628594 
L 189.078125 90.628594 
L 189.078125 80.128594 
L 159.078125 80.128594 
z
" style="fill:#ffff00;"/>
    </g>
    <g id="text_20">
     <!-- e: E$\Delta$ -->
     <g transform="translate(190.578125 90.628594)scale(0.15 -0.15)">
      <use transform="translate(0 0.09375)" xlink:href="#STIXGeneral-Regular-101"/>
      <use transform="translate(44.399994 0.09375)" xlink:href="#STIXGeneral-Regular-58"/>
      <use transform="translate(72.199982 0.09375)" xlink:href="#STIXGeneral-Regular-32"/>
      <use transform="translate(97.199966 0.09375)" xlink:href="#STIXGeneral-Regular-69"/>
      <use transform="translate(158.299957 0.09375)" xlink:href="#DejaVuSans-916"/>
     </g>
    </g>
    <g id="patch_24">
     <path d="M 159.078125 111.884062 
L 189.078125 111.884062 
L 189.078125 101.384062 
L 159.078125 101.384062 
z
" style="fill:url(#h7937d337df);"/>
    </g>
    <g id="text_21">
     <!-- @: Train -->
     <defs>
      <path d="M 59.296875 49.203125 
L 56.90625 49.203125 
Q 55.296875 57.40625 52.390625 59.703125 
Q 49.5 62 41.5 62 
L 35.59375 62 
L 35.59375 11.09375 
Q 35.59375 5.40625 37.296875 3.796875 
Q 39 2.203125 45.203125 1.90625 
L 45.203125 0 
L 16 0 
L 16 1.90625 
Q 22.296875 2.296875 23.84375 4 
Q 25.40625 5.703125 25.40625 12.296875 
L 25.40625 62 
L 19.40625 62 
Q 11.296875 62 8.4375 59.640625 
Q 5.59375 57.296875 4.09375 49.203125 
L 1.703125 49.203125 
L 2.40625 66.203125 
L 58.59375 66.203125 
z
" id="STIXGeneral-Regular-84"/>
     </defs>
     <g transform="translate(190.578125 111.884062)scale(0.15 -0.15)">
      <use xlink:href="#STIXGeneral-Regular-64"/>
      <use x="92.099991" xlink:href="#STIXGeneral-Regular-58"/>
      <use x="119.899979" xlink:href="#STIXGeneral-Regular-32"/>
      <use x="144.899963" xlink:href="#STIXGeneral-Regular-84"/>
      <use x="205.999954" xlink:href="#STIXGeneral-Regular-114"/>
      <use x="239.299942" xlink:href="#STIXGeneral-Regular-97"/>
      <use x="283.699936" xlink:href="#STIXGeneral-Regular-105"/>
      <use x="311.499924" xlink:href="#STIXGeneral-Regular-110"/>
     </g>
    </g>
    <g id="patch_25">
     <path d="M 159.078125 133.139531 
L 189.078125 133.139531 
L 189.078125 122.639531 
L 159.078125 122.639531 
z
" style="fill:url(#hb57ee1367b);"/>
    </g>
    <g id="text_22">
     <!-- #: Test -->
     <g transform="translate(190.578125 133.139531)scale(0.15 -0.15)">
      <use xlink:href="#STIXGeneral-Regular-35"/>
      <use x="49.999985" xlink:href="#STIXGeneral-Regular-58"/>
      <use x="77.799973" xlink:href="#STIXGeneral-Regular-32"/>
      <use x="102.799957" xlink:href="#STIXGeneral-Regular-84"/>
      <use x="163.899948" xlink:href="#STIXGeneral-Regular-101"/>
      <use x="208.299942" xlink:href="#STIXGeneral-Regular-115"/>
      <use x="247.199936" xlink:href="#STIXGeneral-Regular-116"/>
     </g>
    </g>
   </g>
  </g>
 </g>
 <defs>
  <clipPath id="p4166f3474f">
   <rect height="190.26" width="167.4" x="61.878125" y="7.2"/>
  </clipPath>
 </defs>
 <defs>
  <pattern height="72" id="h5bdcdc4e38" patternUnits="userSpaceOnUse" width="72" x="0" y="0">
   <rect fill="#008000" height="73" width="73" x="0" y="0"/>
   <path d="M -36 36 
L 36 108 
M -33.6 33.6 
L 38.4 105.6 
M -31.2 31.2 
L 40.8 103.2 
M -28.8 28.8 
L 43.2 100.8 
M -26.4 26.4 
L 45.6 98.4 
M -24 24 
L 48 96 
M -21.6 21.6 
L 50.4 93.6 
M -19.2 19.2 
L 52.8 91.2 
M -16.8 16.8 
L 55.2 88.8 
M -14.4 14.4 
L 57.6 86.4 
M -12 12 
L 60 84 
M -9.6 9.6 
L 62.4 81.6 
M -7.2 7.2 
L 64.8 79.2 
M -4.8 4.8 
L 67.2 76.8 
M -2.4 2.4 
L 69.6 74.4 
M 0 0 
L 72 72 
M 2.4 -2.4 
L 74.4 69.6 
M 4.8 -4.8 
L 76.8 67.2 
M 7.2 -7.2 
L 79.2 64.8 
M 9.6 -9.6 
L 81.6 62.4 
M 12 -12 
L 84 60 
M 14.4 -14.4 
L 86.4 57.6 
M 16.8 -16.8 
L 88.8 55.2 
M 19.2 -19.2 
L 91.2 52.8 
M 21.6 -21.6 
L 93.6 50.4 
M 24 -24 
L 96 48 
M 26.4 -26.4 
L 98.4 45.6 
M 28.8 -28.8 
L 100.8 43.2 
M 31.2 -31.2 
L 103.2 40.8 
M 33.6 -33.6 
L 105.6 38.4 
M 36 -36 
L 108 36 
" style="fill:#000000;stroke:#000000;stroke-linecap:butt;stroke-linejoin:miter;stroke-width:1.0;"/>
  </pattern>
  <pattern height="72" id="h0860ad3560" patternUnits="userSpaceOnUse" width="72" x="0" y="0">
   <rect fill="#008000" height="73" width="73" x="0" y="0"/>
   <path d="M -36 36 
L 36 -36 
M -33.6 38.4 
L 38.4 -33.6 
M -31.2 40.8 
L 40.8 -31.2 
M -28.8 43.2 
L 43.2 -28.8 
M -26.4 45.6 
L 45.6 -26.4 
M -24 48 
L 48 -24 
M -21.6 50.4 
L 50.4 -21.6 
M -19.2 52.8 
L 52.8 -19.2 
M -16.8 55.2 
L 55.2 -16.8 
M -14.4 57.6 
L 57.6 -14.4 
M -12 60 
L 60 -12 
M -9.6 62.4 
L 62.4 -9.6 
M -7.2 64.8 
L 64.8 -7.2 
M -4.8 67.2 
L 67.2 -4.8 
M -2.4 69.6 
L 69.6 -2.4 
M 0 72 
L 72 0 
M 2.4 74.4 
L 74.4 2.4 
M 4.8 76.8 
L 76.8 4.8 
M 7.2 79.2 
L 79.2 7.2 
M 9.6 81.6 
L 81.6 9.6 
M 12 84 
L 84 12 
M 14.4 86.4 
L 86.4 14.4 
M 16.8 88.8 
L 88.8 16.8 
M 19.2 91.2 
L 91.2 19.2 
M 21.6 93.6 
L 93.6 21.6 
M 24 96 
L 96 24 
M 26.4 98.4 
L 98.4 26.4 
M 28.8 100.8 
L 100.8 28.8 
M 31.2 103.2 
L 103.2 31.2 
M 33.6 105.6 
L 105.6 33.6 
M 36 108 
L 108 36 
" style="fill:#000000;stroke:#000000;stroke-linecap:butt;stroke-linejoin:miter;stroke-width:1.0;"/>
  </pattern>
  <pattern height="72" id="h17acf799c5" patternUnits="userSpaceOnUse" width="72" x="0" y="0">
   <rect fill="#ff0000" height="73" width="73" x="0" y="0"/>
   <path d="M -36 36 
L 36 -36 
M -33.6 38.4 
L 38.4 -33.6 
M -31.2 40.8 
L 40.8 -31.2 
M -28.8 43.2 
L 43.2 -28.8 
M -26.4 45.6 
L 45.6 -26.4 
M -24 48 
L 48 -24 
M -21.6 50.4 
L 50.4 -21.6 
M -19.2 52.8 
L 52.8 -19.2 
M -16.8 55.2 
L 55.2 -16.8 
M -14.4 57.6 
L 57.6 -14.4 
M -12 60 
L 60 -12 
M -9.6 62.4 
L 62.4 -9.6 
M -7.2 64.8 
L 64.8 -7.2 
M -4.8 67.2 
L 67.2 -4.8 
M -2.4 69.6 
L 69.6 -2.4 
M 0 72 
L 72 0 
M 2.4 74.4 
L 74.4 2.4 
M 4.8 76.8 
L 76.8 4.8 
M 7.2 79.2 
L 79.2 7.2 
M 9.6 81.6 
L 81.6 9.6 
M 12 84 
L 84 12 
M 14.4 86.4 
L 86.4 14.4 
M 16.8 88.8 
L 88.8 16.8 
M 19.2 91.2 
L 91.2 19.2 
M 21.6 93.6 
L 93.6 21.6 
M 24 96 
L 96 24 
M 26.4 98.4 
L 98.4 26.4 
M 28.8 100.8 
L 100.8 28.8 
M 31.2 103.2 
L 103.2 31.2 
M 33.6 105.6 
L 105.6 33.6 
M 36 108 
L 108 36 
" style="fill:#000000;stroke:#000000;stroke-linecap:butt;stroke-linejoin:miter;stroke-width:1.0;"/>
  </pattern>
  <pattern height="72" id="h55b910cc8f" patternUnits="userSpaceOnUse" width="72" x="0" y="0">
   <rect fill="#ff0000" height="73" width="73" x="0" y="0"/>
   <path d="M -36 36 
L 36 108 
M -33.6 33.6 
L 38.4 105.6 
M -31.2 31.2 
L 40.8 103.2 
M -28.8 28.8 
L 43.2 100.8 
M -26.4 26.4 
L 45.6 98.4 
M -24 24 
L 48 96 
M -21.6 21.6 
L 50.4 93.6 
M -19.2 19.2 
L 52.8 91.2 
M -16.8 16.8 
L 55.2 88.8 
M -14.4 14.4 
L 57.6 86.4 
M -12 12 
L 60 84 
M -9.6 9.6 
L 62.4 81.6 
M -7.2 7.2 
L 64.8 79.2 
M -4.8 4.8 
L 67.2 76.8 
M -2.4 2.4 
L 69.6 74.4 
M 0 0 
L 72 72 
M 2.4 -2.4 
L 74.4 69.6 
M 4.8 -4.8 
L 76.8 67.2 
M 7.2 -7.2 
L 79.2 64.8 
M 9.6 -9.6 
L 81.6 62.4 
M 12 -12 
L 84 60 
M 14.4 -14.4 
L 86.4 57.6 
M 16.8 -16.8 
L 88.8 55.2 
M 19.2 -19.2 
L 91.2 52.8 
M 21.6 -21.6 
L 93.6 50.4 
M 24 -24 
L 96 48 
M 26.4 -26.4 
L 98.4 45.6 
M 28.8 -28.8 
L 100.8 43.2 
M 31.2 -31.2 
L 103.2 40.8 
M 33.6 -33.6 
L 105.6 38.4 
M 36 -36 
L 108 36 
" style="fill:#000000;stroke:#000000;stroke-linecap:butt;stroke-linejoin:miter;stroke-width:1.0;"/>
  </pattern>
  <pattern height="72" id="h7937d337df" patternUnits="userSpaceOnUse" width="72" x="0" y="0">
   <rect fill="#ffffff" height="73" width="73" x="0" y="0"/>
   <path d="M -36 36 
L 36 -36 
M -33.6 38.4 
L 38.4 -33.6 
M -31.2 40.8 
L 40.8 -31.2 
M -28.8 43.2 
L 43.2 -28.8 
M -26.4 45.6 
L 45.6 -26.4 
M -24 48 
L 48 -24 
M -21.6 50.4 
L 50.4 -21.6 
M -19.2 52.8 
L 52.8 -19.2 
M -16.8 55.2 
L 55.2 -16.8 
M -14.4 57.6 
L 57.6 -14.4 
M -12 60 
L 60 -12 
M -9.6 62.4 
L 62.4 -9.6 
M -7.2 64.8 
L 64.8 -7.2 
M -4.8 67.2 
L 67.2 -4.8 
M -2.4 69.6 
L 69.6 -2.4 
M 0 72 
L 72 0 
M 2.4 74.4 
L 74.4 2.4 
M 4.8 76.8 
L 76.8 4.8 
M 7.2 79.2 
L 79.2 7.2 
M 9.6 81.6 
L 81.6 9.6 
M 12 84 
L 84 12 
M 14.4 86.4 
L 86.4 14.4 
M 16.8 88.8 
L 88.8 16.8 
M 19.2 91.2 
L 91.2 19.2 
M 21.6 93.6 
L 93.6 21.6 
M 24 96 
L 96 24 
M 26.4 98.4 
L 98.4 26.4 
M 28.8 100.8 
L 100.8 28.8 
M 31.2 103.2 
L 103.2 31.2 
M 33.6 105.6 
L 105.6 33.6 
M 36 108 
L 108 36 
" style="fill:#000000;stroke:#000000;stroke-linecap:butt;stroke-linejoin:miter;stroke-width:1.0;"/>
  </pattern>
  <pattern height="72" id="hb57ee1367b" patternUnits="userSpaceOnUse" width="72" x="0" y="0">
   <rect fill="#ffffff" height="73" width="73" x="0" y="0"/>
   <path d="M -36 36 
L 36 108 
M -33.6 33.6 
L 38.4 105.6 
M -31.2 31.2 
L 40.8 103.2 
M -28.8 28.8 
L 43.2 100.8 
M -26.4 26.4 
L 45.6 98.4 
M -24 24 
L 48 96 
M -21.6 21.6 
L 50.4 93.6 
M -19.2 19.2 
L 52.8 91.2 
M -16.8 16.8 
L 55.2 88.8 
M -14.4 14.4 
L 57.6 86.4 
M -12 12 
L 60 84 
M -9.6 9.6 
L 62.4 81.6 
M -7.2 7.2 
L 64.8 79.2 
M -4.8 4.8 
L 67.2 76.8 
M -2.4 2.4 
L 69.6 74.4 
M 0 0 
L 72 72 
M 2.4 -2.4 
L 74.4 69.6 
M 4.8 -4.8 
L 76.8 67.2 
M 7.2 -7.2 
L 79.2 64.8 
M 9.6 -9.6 
L 81.6 62.4 
M 12 -12 
L 84 60 
M 14.4 -14.4 
L 86.4 57.6 
M 16.8 -16.8 
L 88.8 55.2 
M 19.2 -19.2 
L 91.2 52.8 
M 21.6 -21.6 
L 93.6 50.4 
M 24 -24 
L 96 48 
M 26.4 -26.4 
L 98.4 45.6 
M 28.8 -28.8 
L 100.8 43.2 
M 31.2 -31.2 
L 103.2 40.8 
M 33.6 -33.6 
L 105.6 38.4 
M 36 -36 
L 108 36 
" style="fill:#000000;stroke:#000000;stroke-linecap:butt;stroke-linejoin:miter;stroke-width:1.0;"/>
  </pattern>
 </defs>
</svg>
